<mxfile host="drawio-plugin" modified="2022-10-29T14:31:33.687Z" agent="5.0 (Macintosh; Intel Mac OS X 10_15_7) AppleWebKit/537.36 (KHTML, like Gecko) Chrome/97.0.4692.45 Safari/537.36" version="15.5.4" etag="sL3PpWGw05LlumUJutGe" type="embed"><diagram id="2HvrPMHnrLkSve-W3m0t" name="機能仕様"><mxGraphModel dx="1384" dy="760" grid="1" gridSize="10" guides="1" tooltips="1" connect="1" arrows="1" fold="1" page="1" pageScale="1" pageWidth="1169" pageHeight="827" math="0" shadow="0"><root><mxCell id="0"/><mxCell id="1" parent="0"/><mxCell id="8" value="&lt;h1&gt;機能仕様&lt;/h1&gt;&lt;div&gt;&lt;ul&gt;&lt;li&gt;本の情報と読書した感想を管理するシステム。&lt;/li&gt;&lt;li&gt;利用者間で読書の内容を共有し、同じ趣味の読書家を探す、おすすめの本を共有することを目的とする。&lt;/li&gt;&lt;li&gt;利用者が本のタイトルを登録することで、本の情報を外部より取得する。存在しない本は登録できない。&lt;/li&gt;&lt;li&gt;利用者は読書した結果を感想や評点を登録できる&lt;/li&gt;&lt;li&gt;登録できる読書情報は「読書期間」「読書にかかった時間」「感想内容」「評点」「おすすめ度」「公開範囲」「&lt;/li&gt;&lt;li&gt;利用者は登録後も利用者本人が登録した読書内容を変更することができる&lt;/li&gt;&lt;li&gt;利用者は読書内容を公開する範囲を変更することができる。&lt;/li&gt;&lt;/ul&gt;&lt;/div&gt;" style="rounded=0;whiteSpace=wrap;html=1;verticalAlign=top;align=left;" vertex="1" parent="1"><mxGeometry x="80" y="40" width="950" height="770" as="geometry"/></mxCell></root></mxGraphModel></diagram></mxfile>